<svg width="28" height="28" viewBox="0 0 28 28" fill="none" xmlns="http://www.w3.org/2000/svg">
<g clip-path="url(#clip0_405_61)">
<path d="M21 14C19.7057 14 18.3841 14.1276 17.0352 14.3828C16.543 12.9792 15.987 11.6667 15.3672 10.4453C17.0625 9.64323 18.571 8.63151 19.8926 7.41016C21.2142 6.1888 22.2578 4.82161 23.0234 3.30859C24.5729 4.62109 25.7897 6.20703 26.6738 8.06641C27.5579 9.92578 28 11.9036 28 14C28 14.3464 27.9818 14.7565 27.9453 15.2305C25.7214 14.4102 23.4062 14 21 14ZM14.5195 8.91406C12.569 5.54167 10.2448 3.09896 7.54688 1.58594C9.57031 0.528646 11.7214 0 14 0C16.7526 0 19.2865 0.747396 21.6016 2.24219C20.9089 3.66406 19.9564 4.94922 18.7441 6.09766C17.5319 7.24609 16.1237 8.1849 14.5195 8.91406ZM12.9336 9.51562C11.0195 10.1719 9.04167 10.5 7 10.5C4.88542 10.5 2.81641 10.1354 0.792969 9.40625C1.75911 6.63542 3.42708 4.38411 5.79688 2.65234C8.56771 3.89193 10.9466 6.17969 12.9336 9.51562ZM7 12.25C9.36979 12.25 11.6302 11.8581 13.7812 11.0742C14.3646 12.2409 14.8932 13.4805 15.3672 14.793C12.7786 15.5404 10.5228 16.7435 8.59961 18.4023C6.67643 20.0612 5.27734 21.9844 4.40234 24.1719C3.01693 22.8776 1.93685 21.3509 1.16211 19.5918C0.38737 17.8327 0 15.9688 0 14C0 13.0156 0.10026 12.0404 0.300781 11.0742C2.50651 11.8581 4.73958 12.25 7 12.25ZM15.8867 16.4609C16.9076 19.9245 17.4362 23.6159 17.4727 27.5352C16.306 27.8451 15.1484 28 14 28C11.0104 28 8.29427 27.1159 5.85156 25.3477C6.54427 23.2695 7.7793 21.4466 9.55664 19.8789C11.334 18.3112 13.444 17.1719 15.8867 16.4609ZM17.582 16.0781C18.7305 15.8594 19.8698 15.75 21 15.75C23.2969 15.75 25.5208 16.1693 27.6719 17.0078C27.1797 19.2682 26.1816 21.2826 24.6777 23.0508C23.1738 24.819 21.3555 26.1315 19.2227 26.9883C19.1315 23.1055 18.5846 19.4688 17.582 16.0781Z" fill="#181818"/>
</g>
<defs>
<clipPath id="clip0_405_61">
<rect width="28" height="28" fill="white"/>
</clipPath>
</defs>
</svg>
