<svg width="28" height="21" viewBox="0 0 28 21" fill="none" xmlns="http://www.w3.org/2000/svg">
<g clip-path="url(#clip0_405_65)">
<path d="M14 10.4898L0.0136719 3.41463V1.74829C0.0136719 1.25659 0.18668 0.842276 0.532696 0.505366C0.878713 0.168455 1.28847 0 1.76196 0H26.2381C26.7116 0 27.1213 0.168455 27.4673 0.505366C27.8133 0.842276 27.9864 1.25659 27.9864 1.74829V3.41463L14 10.4898ZM13.1259 12.238H14.8742L27.9864 5.4361V19.2312C27.9864 19.7047 27.8133 20.1145 27.4673 20.4605C27.1213 20.8065 26.7116 20.9795 26.2381 20.9795H1.76196C1.28847 20.9795 0.878713 20.8065 0.532696 20.4605C0.18668 20.1145 0.0136719 19.7047 0.0136719 19.2312V5.4361L13.1259 12.238Z" fill="#181818"/>
</g>
<defs>
<clipPath id="clip0_405_65">
<rect width="28" height="20.9795" fill="white"/>
</clipPath>
</defs>
</svg>
